<svg width="38" height="42" viewBox="0 0 38 42" fill="none" xmlns="http://www.w3.org/2000/svg"><path fill-rule="evenodd" clip-rule="evenodd" d="M33.5833 4.25016H24.875C24 1.8335 21.7083 0.0834961 19 0.0834961C16.2917 0.0834961 14 1.8335 13.125 4.25016H4.41667C2.125 4.25016 0.25 6.12516 0.25 8.41683V37.5835C0.25 39.8752 2.125 41.7502 4.41667 41.7502H33.5833C35.875 41.7502 37.75 39.8752 37.75 37.5835V8.41683C37.75 6.12516 35.875 4.25016 33.5833 4.25016ZM19 4.25016C20.1458 4.25016 21.0833 5.18766 21.0833 6.3335C21.0833 7.47933 20.1458 8.41683 19 8.41683C17.8542 8.41683 16.9167 7.47933 16.9167 6.3335C16.9167 5.18766 17.8542 4.25016 19 4.25016ZM6.5 25.0835L14.8333 33.4168L31.5 16.7501L28.5625 13.7918L14.8333 27.521L9.4375 22.146L6.5 25.0835Z" fill="#fff"/></svg>