<svg width="46" height="46" viewBox="0 0 46 46" fill="none" xmlns="http://www.w3.org/2000/svg">
<path fill-rule="evenodd" clip-rule="evenodd" d="M5.75 1.91675V7.66675H0V11.5001H5.75V17.2501H9.58333V11.5001H15.3333V7.66675H9.58333V1.91675H5.75ZM11.5 13.4167V19.1667H5.75V38.3334C5.75 40.4417 7.475 42.1667 9.58333 42.1667H40.25C42.3583 42.1667 44.0833 40.4417 44.0833 38.3334V15.3334C44.0833 13.2251 42.3583 11.5001 40.25 11.5001H34.1742L30.6667 7.66675H17.25V13.4167H11.5ZM24.9167 36.4167C30.2067 36.4167 34.5 32.1234 34.5 26.8334C34.5 21.5434 30.2067 17.2501 24.9167 17.2501C19.6267 17.2501 15.3333 21.5434 15.3333 26.8334C15.3333 32.1234 19.6267 36.4167 24.9167 36.4167ZM24.9167 32.9667C21.5242 32.9667 18.7834 30.2259 18.7834 26.8334C18.7834 23.4409 21.5242 20.7001 24.9167 20.7001C28.3092 20.7001 31.05 23.4409 31.05 26.8334C31.05 30.2259 28.3092 32.9667 24.9167 32.9667Z" fill="white"/>
<path d="M46 0H0V46H46V0Z" fill="white"/>
</svg>
