<svg width="42" height="42" viewBox="0 0 42 42" fill="none" xmlns="http://www.w3.org/2000/svg"><mask id="mask0" maskUnits="userSpaceOnUse" x="5" y="5" width="32" height="32"><path d="M15.7722 16.5077C15.7008 20.4762 16.9057 24.3872 19.1783 27.6483L22.8974 26.5112C23.3538 26.3717 23.8481 26.5071 24.164 26.8449C25.183 27.9105 26.4011 28.8413 27.7697 29.569C28.3767 29.8918 28.6093 30.6525 28.2865 31.2595L26.2384 35.1114C25.9157 35.7184 25.1549 35.951 24.5479 35.6282C14.1843 30.1178 10.2511 17.2529 15.7615 6.88933C16.0843 6.2823 16.845 6.04972 17.4521 6.37248L21.315 8.42642C21.922 8.74918 22.1546 9.50992 21.8318 10.1169C21.0983 11.4966 20.6148 12.9383 20.3659 14.3916C20.2819 14.8424 19.9647 15.2259 19.4914 15.3706L15.7722 16.5077Z" fill="#fff"/></mask><g mask="url(#mask0)"><path transform="rotate(28 14.798 .714)" fill="#29ABE2" d="M14.798 0.714H44.798V30.714H14.798z"/></g></svg>