<svg width="42" height="40" viewBox="0 0 42 40" fill="none" xmlns="http://www.w3.org/2000/svg">
<path fill-rule="evenodd" clip-rule="evenodd" d="M29.3334 8.49984H37.6667C39.9792 8.49984 41.8334 10.354 41.8334 12.6665V35.5832C41.8334 37.8957 39.9792 39.7498 37.6667 39.7498H4.33335C2.02085 39.7498 0.166687 37.8957 0.166687 35.5832L0.18752 12.6665C0.18752 10.354 2.02085 8.49984 4.33335 8.49984H12.6667V4.33317C12.6667 2.02067 14.5209 0.166504 16.8334 0.166504H25.1667C27.4792 0.166504 29.3334 2.02067 29.3334 4.33317V8.49984ZM16.8334 8.49984H25.1667V4.33317H16.8334V8.49984Z" fill="#9B9B9B"/>
<mask id="mask0" mask-type="alpha" maskUnits="userSpaceOnUse" x="0" y="0" width="42" height="40">
<path fill-rule="evenodd" clip-rule="evenodd" d="M29.3334 8.49984H37.6667C39.9792 8.49984 41.8334 10.354 41.8334 12.6665V35.5832C41.8334 37.8957 39.9792 39.7498 37.6667 39.7498H4.33335C2.02085 39.7498 0.166687 37.8957 0.166687 35.5832L0.18752 12.6665C0.18752 10.354 2.02085 8.49984 4.33335 8.49984H12.6667V4.33317C12.6667 2.02067 14.5209 0.166504 16.8334 0.166504H25.1667C27.4792 0.166504 29.3334 2.02067 29.3334 4.33317V8.49984ZM16.8334 8.49984H25.1667V4.33317H16.8334V8.49984Z" fill="white"/>
</mask>
<g mask="url(#mask0)">
<mask id="mask1" mask-type="alpha" maskUnits="userSpaceOnUse" x="2" y="-2" width="38" height="42">
<path fill-rule="evenodd" clip-rule="evenodd" d="M35.5833 2.25016H26.875C26 -0.166504 23.7083 -1.9165 21 -1.9165C18.2917 -1.9165 16 -0.166504 15.125 2.25016H6.41667C4.125 2.25016 2.25 4.12516 2.25 6.41683V35.5835C2.25 37.8752 4.125 39.7502 6.41667 39.7502H35.5833C37.875 39.7502 39.75 37.8752 39.75 35.5835V6.41683C39.75 4.12516 37.875 2.25016 35.5833 2.25016ZM21 2.25016C22.1458 2.25016 23.0833 3.18766 23.0833 4.3335C23.0833 5.47933 22.1458 6.41683 21 6.41683C19.8542 6.41683 18.9167 5.47933 18.9167 4.3335C18.9167 3.18766 19.8542 2.25016 21 2.25016ZM8.5 23.0835L16.8333 31.4168L33.5 14.7502L30.5625 11.7918L16.8333 25.521L11.4375 20.146L8.5 23.0835Z" fill="white"/>
</mask>
<g mask="url(#mask1)">
<rect x="-4" y="-4" width="50" height="50" fill="#9B9B9B"/>
</g>
</g>
</svg>
