<svg width="16" height="22" viewBox="0 0 16 22" fill="none" xmlns="http://www.w3.org/2000/svg">
<mask id="mask0" mask-type="alpha" maskUnits="userSpaceOnUse" x="0" y="0" width="16" height="22">
<path fill-rule="evenodd" clip-rule="evenodd" d="M0.416656 7.75008C0.416656 3.55758 3.80749 0.166748 7.99999 0.166748C12.1925 0.166748 15.5833 3.55758 15.5833 7.75008C15.5833 13.4376 7.99999 21.8334 7.99999 21.8334C7.99999 21.8334 0.416656 13.4376 0.416656 7.75008ZM5.29166 7.75008C5.29166 9.24508 6.50499 10.4584 7.99999 10.4584C9.49499 10.4584 10.7083 9.24508 10.7083 7.75008C10.7083 6.25508 9.49499 5.04175 7.99999 5.04175C6.50499 5.04175 5.29166 6.25508 5.29166 7.75008Z" fill="white"/>
</mask>
<g mask="url(#mask0)">
<rect x="-5" y="-2" width="26" height="26" fill="#29ABE2"/>
</g>
</svg>
